<?xml version="1.0" encoding="UTF-8"?>
<!DOCTYPE svg PUBLIC "-//W3C//DTD SVG 1.1//EN" "http://www.w3.org/Graphics/SVG/1.1/DTD/svg11.dtd">
<svg version="1.1" xmlns="http://www.w3.org/2000/svg" xmlns:xlink="http://www.w3.org/1999/xlink" width="1024" height="1024"  xml:space="preserve" id="brace">
    <!-- Generated by PaintCode - http://www.paintcodeapp.com -->
    <defs>
        <linearGradient id="brace-gradient-gradientBackground" x1="0" y1="512" x2="1024" y2="512" gradientUnits="userSpaceOnUse" >
            <stop offset="0" stop-color="rgb(255, 87, 87)" stop-opacity="1" />
            <stop offset="1" stop-color="rgb(140, 82, 255)" stop-opacity="1" />
        </linearGradient>
    </defs>
    <rect id="brace-gradientBackground" stroke="none" fill="url(#brace-gradient-gradientBackground)" x="0" y="0" width="1024" height="1024" />
    <rect id="brace-whiteBorder" stroke="rgb(255, 255, 255)" stroke-width="50" stroke-miterlimit="10" fill="none" x="60" y="60" width="904" height="904" />
    <path id="brace-flame" stroke="none" fill="rgb(255, 255, 255)" d="M 739.47,539.51 C 725.56,570.27 695.21,592.85 648.89,606.87 647.18,607.37 645.37,607.1 643.89,606.13 642.41,605.12 641.47,603.55 641.29,601.8 638.57,574.57 642.62,545.94 652.97,519.01 667.11,482.15 671.73,451.36 669.39,409.19 665.25,334.22 636.62,268.29 584.26,213 593.31,271.61 585.56,314.22 531.4,333.1 530.93,333.28 530.45,333.36 529.92,333.39 516.79,334.55 504.81,330.19 495.46,321.04 483.39,309.24 476.65,290.16 475.91,266.46 393.46,338.43 355.54,431.62 363.14,543.57 363.29,545.59 362.4,547.51 360.78,548.73 359.18,549.94 357.05,550.21 355.16,549.53 329.63,539.99 310.87,523.24 299.28,499.63 273.48,565.68 271.44,621.89 293.21,666.9 315.9,713.78 364.18,748.95 436.74,771.71 377.7,699.55 368.2,628.79 408.64,561.08 409.88,558.98 412.39,557.94 414.76,558.29 417.19,558.74 419.08,560.64 419.52,563.07 424.85,592.22 436.35,607.9 455.55,612.02 479.6,558.8 478.95,503.12 453.63,446.5 452.53,444.07 453.21,441.25 455.23,439.53 457.27,437.81 460.14,437.69 462.35,439.18 496.93,462.7 537.64,498.8 545.48,569.53 548.2,589.65 545.24,611.13 536.37,634.9 563.23,641.8 581.92,634.07 594.82,610.69 595.97,608.61 598.25,607.43 600.59,607.67 602.95,607.9 604.94,609.53 605.65,611.82 625.23,674.81 619.31,731.12 588.28,779.41 633.54,766.91 673.53,739.65 702.2,700.68 736.81,653.66 750,595.79 739.47,539.48 L 739.47,539.51 Z M 739.47,539.51" />
    <g id="brace-group">
        <path id="brace-leftBrace" stroke="none" fill="rgb(255, 255, 255)" d="M 323.48,221.72 L 323.48,178.52 273.08,178.52 C 263.96,178.52 254.84,180.56 245.72,184.64 236.6,188.72 228.32,194.72 220.88,202.64 213.44,210.56 207.32,220.4 202.52,232.16 197.72,243.92 195.32,257.48 195.32,272.84 L 195.32,403.88 C 195.32,416.36 193.64,427.88 190.28,438.44 186.92,449 182.48,458 176.96,465.44 171.44,472.88 165.08,478.64 157.88,482.72 150.68,486.8 143.24,488.84 135.56,488.84 L 135.56,537.8 C 143.24,537.8 150.68,539.72 157.88,543.56 165.08,547.4 171.44,552.92 176.96,560.12 182.48,567.32 186.92,576.2 190.28,586.76 193.64,597.32 195.32,609.08 195.32,622.04 L 195.32,752.36 C 195.32,767.72 197.72,781.28 202.52,793.04 207.32,804.8 213.44,814.64 220.88,822.56 228.32,830.48 236.6,836.48 245.72,840.56 254.84,844.64 263.96,846.68 273.08,846.68 L 323.48,846.68 323.48,803.48 287.48,803.48 C 280.28,803.48 274.52,801.68 270.2,798.08 265.88,794.48 262.4,789.68 259.76,783.68 257.12,777.68 255.32,770.96 254.36,763.52 253.4,756.08 252.92,748.76 252.92,741.56 L 252.92,610.52 C 252.92,592.28 250.4,577.16 245.36,565.16 240.32,553.16 234.44,543.44 227.72,536 221,528.56 214.16,523.16 207.2,519.8 200.24,516.44 194.6,514.52 190.28,514.04 L 190.28,511.88 C 194.6,510.92 200.24,508.52 207.2,504.68 214.16,500.84 221,495.08 227.72,487.4 234.44,479.72 240.32,470 245.36,458.24 250.4,446.48 252.92,432.2 252.92,415.4 L 252.92,283.64 C 252.92,275.96 253.4,268.4 254.36,260.96 255.32,253.52 257.12,246.92 259.76,241.16 262.4,235.4 265.88,230.72 270.2,227.12 274.52,223.52 280.28,221.72 287.48,221.72 L 323.48,221.72 Z M 323.48,221.72" />
        <path id="brace-rightBrace" stroke="none" fill="rgb(255, 255, 255)" d="M 700.28,803.48 L 700.28,846.68 750.68,846.68 C 759.8,846.68 768.92,844.64 778.04,840.56 787.16,836.48 795.44,830.48 802.88,822.56 810.32,814.64 816.44,804.8 821.24,793.04 826.04,781.28 828.44,767.72 828.44,752.36 L 828.44,622.04 C 828.44,609.56 830.12,598.16 833.48,587.84 836.84,577.52 841.28,568.64 846.8,561.2 852.32,553.76 858.68,548 865.88,543.92 873.08,539.84 880.52,537.8 888.2,537.8 L 888.2,488.84 C 880.52,488.84 873.08,486.92 865.88,483.08 858.68,479.24 852.32,473.6 846.8,466.16 841.28,458.72 836.84,449.72 833.48,439.16 830.12,428.6 828.44,416.84 828.44,403.88 L 828.44,272.84 C 828.44,257.48 826.04,243.92 821.24,232.16 816.44,220.4 810.32,210.56 802.88,202.64 795.44,194.72 787.16,188.72 778.04,184.64 768.92,180.56 759.8,178.52 750.68,178.52 L 700.28,178.52 700.28,221.72 736.28,221.72 C 743.48,221.72 749.24,223.52 753.56,227.12 757.88,230.72 761.36,235.52 764,241.52 766.64,247.52 768.44,254.24 769.4,261.68 770.36,269.12 770.84,276.92 770.84,285.08 L 770.84,415.4 C 770.84,433.64 773.36,448.76 778.4,460.76 783.44,472.76 789.32,482.48 796.04,489.92 802.76,497.36 809.6,502.76 816.56,506.12 823.52,509.48 829.16,511.4 833.48,511.88 L 833.48,514.04 C 829.16,515 823.52,517.4 816.56,521.24 809.6,525.08 802.76,530.84 796.04,538.52 789.32,546.2 783.44,555.92 778.4,567.68 773.36,579.44 770.84,593.72 770.84,610.52 L 770.84,741.56 C 770.84,749.24 770.36,756.8 769.4,764.24 768.44,771.68 766.64,778.28 764,784.04 761.36,789.8 757.88,794.48 753.56,798.08 749.24,801.68 743.48,803.48 736.28,803.48 L 700.28,803.48 Z M 700.28,803.48" />
    </g>
</svg>
